<svg version="1.2" xmlns="http://www.w3.org/2000/svg" viewBox="0 0 364 307" width="500" height="422">
	<title>omega logo-svg</title>
	<style>
		.s0 { fill: #000000 } 
	</style>
	<path id="arc" class="s0" d="m263.5 307c-5.3-5.3-10-10.7-15-15.9-3.2-3.2-3.6-5.4 0.3-8.7 19.4-16.9 31.7-38.2 34.5-63.6 4.1-36.7-7.8-67.9-36.4-92-15.9-13.5-34.5-21.3-54.9-23.1-54.5-4.8-100.7 30.9-110.2 82.7-6.7 36.7 4.2 68.5 31.5 94.3 1.9 1.8 4.3 3.2 5.6 6.3-5.7 6.4-11.6 12.9-17.7 19.7-33.6 0.3-66.9 0.3-100.7 0.3 13.9-24.3 28.4-48.5 42.7-72.7 2.6 0.9 2.4 2.7 2.7 4 3.7 16 10.6 30.8 19.5 44.6 3.6 5.5 4.9 5.9 12.6 3.6-26.4-36.9-34.4-77-21.3-120.6 8.1-26.9 23.9-48.6 46.2-65.4 45.7-34.6 109.3-35.6 155.4-2.6 19.5 14 34.4 31.8 44.1 53.9 9.7 22.1 13.4 45.2 10.5 69.2-2.8 23.8-12 45.1-25.9 65 4.8 1.5 8.2 1.6 10.8-2.3 9.4-13.8 16.4-28.5 20-44.9 0.4-1.5 0.2-3.3 3.1-5 14.4 24.1 29 48.1 42.9 72.9-33.2 0.3-66.5 0.3-100.3 0.3z"/>
	<path id="spike" class="s0" d="m201.6 32.5c7.1 12.8 15.3 24.7 22.4 39-28.5-7.6-55.5-8.3-82.5-0.3q-0.4-0.7-0.8-1.3c13.5-22.9 27-45.8 41.3-70 7 11.6 13.2 21.9 19.6 32.6z"/>
	<path id="dot" class="s0" d="m197.3 245.5c-17.4 5.6-32.9 2.7-45.8-9.6-13.4-12.8-17.3-28.9-11.4-46.6 5.7-17 18.2-26.7 35.7-29.6 26.9-4.5 50.5 17.7 50.9 42.8 0.3 18.2-11.4 36.4-29.4 43z"/>
</svg>